<?xml version="1.0" encoding="UTF-8" standalone="no"?>
<svg
   xmlns:dc="http://purl.org/dc/elements/1.1/"
   xmlns:cc="http://creativecommons.org/ns#"
   xmlns:rdf="http://www.w3.org/1999/02/22-rdf-syntax-ns#"
   xmlns:svg="http://www.w3.org/2000/svg"
   xmlns="http://www.w3.org/2000/svg"
   version="1.1"
   id="svg2"
   viewBox="0 0 744.09448819 1052.3622047"
   height="297mm"
   width="210mm">
  <defs
     id="defs4" />
  <metadata
     id="metadata7">
    <rdf:RDF>
      <cc:Work
         rdf:about="">
        <dc:format>image/svg+xml</dc:format>
        <dc:type
           rdf:resource="http://purl.org/dc/dcmitype/StillImage" />
        <dc:title></dc:title>
      </cc:Work>
    </rdf:RDF>
  </metadata>
  <g
     id="layer1">
    <g
       transform="matrix(14.36128,0,0,14.36128,-644.1709,312.77898)"
       id="g4468">
      <g
         id="g4452">
        <g
           id="g4454">
          <path
             d="M 10.088228,19.064339 5.906,19.925 5.732,18.94 3.08,3.91 20.094,1.075 l 2.067831,9.240133 c 0.048,0.272 0.306,0.456 0.579,0.405 0.272,-0.048 0.454,-0.307 0.405,-0.579 L 20.993,0.413 C 20.946,0.143 20.687,-0.042 20.419,0.007 L 14.146,1.053 1.543,0.003 C 1.407,-0.013 1.275,0.035 1.173,0.124 1.071,0.212 1.009,0.338 1.002,0.473 l -1,18 c -0.015,0.265 0.18,0.496 0.444,0.525 l 4.368,0.485 0.195,1.104 C 5.051,20.829 5.262,21 5.501,21 5.528,21 5.556,20.998 5.584,20.993 l 4.671228,-0.942661 c 0.272,-0.045 0.457,-0.303 0.411,-0.575 -0.048,-0.272 -0.304,-0.459 -0.578,-0.411 z"
             id="path4456" />
        </g>
      </g>
    </g>
    <g
       transform="matrix(2.6287088,0,0,2.6385838,-531.86045,379.83831)"
       id="g4549">
      <g
         id="g4533">
        <path
           d="m 80.9,35.5 -12.7,0 -2.8,-6.9 C 64.1,25.2 60.8,23 57.2,23 l -14.4,0 c -3.6,0 -6.9,2.2 -8.2,5.6 l -2.8,6.9 -12.7,0 c -2.4,0 -4.4,2 -4.4,4.4 l 0,32.6 c 0,2.4 2,4.4 4.4,4.4 l 61.8,0 c 2.4,0 4.4,-2 4.4,-4.4 l 0,-32.6 c 0,-2.4 -2,-4.4 -4.4,-4.4 z M 50,71.2 c -9.9,0 -18,-8.1 -18,-18 0,-9.9 8.1,-18 18,-18 9.9,0 18,8.1 18,18 0,9.9 -8.1,18 -18,18 z"
           id="path4535" />
        <path
           d="m 50,40.7 c -6.9,0 -12.5,5.6 -12.5,12.5 0,6.9 5.6,12.5 12.5,12.5 6.9,0 12.5,-5.6 12.5,-12.5 0,-6.9 -5.6,-12.5 -12.5,-12.5 z"
           id="path4537" />
      </g>
    </g>
  </g>
</svg>
