<svg xmlns="http://www.w3.org/2000/svg" xmlns:xlink="http://www.w3.org/1999/xlink" version="1.1" x="0px" y="0px" viewBox="0 0 90 112.5" enable-background="new 0 0 90 90" xml:space="preserve"><path fill="#000000" d="M44.5,37.609c-6.453,0-11.703,5.25-11.703,11.703s5.25,11.703,11.703,11.703s11.703-5.25,11.703-11.703  S50.953,37.609,44.5,37.609z"/><path fill="#000000" d="M80.841,23H58.975l-1.54-6.348c0-1.361-1.103-2.652-2.464-2.652h-19.71c-1.36,0-2.464,1.292-2.464,2.652  L31.257,23H8.159C4.758,23,2,24.968,2,28.37v41.884C2,73.655,4.758,77,8.159,77h72.682C84.243,77,87,73.655,87,70.254V28.37  C87,24.968,84.243,23,80.841,23z M44.5,68.406c-10.545,0-19.094-8.549-19.094-19.095c0-10.545,8.549-19.094,19.094-19.094  c10.546,0,19.094,8.549,19.094,19.094C63.594,59.857,55.046,68.406,44.5,68.406z"/></svg>
